<svg xmlns="http://www.w3.org/2000/svg" fill="none" viewBox="0 0 2834.65 3401.575">	<g> <path d="M1327.375,2754.57H1221.11l-20.225,55.875h-33.593l89.468-237.209h35.307l89.125,237.209h-33.595L1327.375,2754.57z M1318.462,2730.232l-44.22-122.033l-44.22,122.033H1318.462z" fill="black" /> <path d="M1528.242,2783.022v27.422h-23.311c-19.195,0-33.538-4.569-43.019-13.711c-9.485-9.138-14.226-24.45-14.226-45.935 v-101.464h-28.107v-27.08h28.107v-46.962h31.537v46.962h48.676v27.08h-48.676v102.15c0,12.116,2.228,20.396,6.683,24.852 c4.458,4.456,12.169,6.686,23.138,6.686H1528.242z" fill="black" /> <path d="M1763.731,2723.034h-150.483c0.687,21.483,6.797,37.594,18.34,48.333c11.536,10.743,25.649,16.111,42.334,16.111 c15.082,0,27.707-3.825,37.877-11.484c10.166-7.654,16.395-17.878,18.682-30.679h33.251c-2.287,13.027-7.37,24.681-15.253,34.963 c-7.886,10.285-18.115,18.286-30.681,23.996c-12.57,5.715-26.737,8.57-42.505,8.57c-18.056,0-34.055-3.883-47.99-11.655 c-13.943-7.766-24.853-18.906-32.738-33.421c-7.883-14.51-11.825-31.59-11.825-51.247c0-19.651,3.942-36.791,11.825-51.418 c7.886-14.622,18.795-25.821,32.738-33.593c13.936-7.766,29.935-11.655,47.99-11.655c18.279,0,34.221,3.889,47.818,11.655 c13.594,7.772,23.995,18.168,31.195,31.194c7.197,13.025,10.796,27.422,10.796,43.191 C1765.103,2712.525,1764.642,2718.235,1763.731,2723.034z M1726.71,2672.986c-5.261-9.367-12.457-16.335-21.595-20.91 c-9.143-4.568-19.084-6.855-29.822-6.855c-17.141,0-31.537,5.313-43.19,15.939c-11.655,10.627-17.944,26.224-18.854,46.791 h120.318C1734.252,2694.015,1731.965,2682.36,1726.71,2672.986z" fill="black" /> <path d="M1862.795,2556.781v253.664h-31.192v-253.664H1862.795z" fill="black" /> <path d="M1938.894,2553.182c3.883-3.541,9.025-5.312,15.425-5.312c6.396,0,11.538,1.772,15.426,5.312 c3.883,3.546,5.828,8.174,5.828,13.883c0,5.714-1.945,10.342-5.828,13.882c-3.888,3.546-9.029,5.313-15.426,5.313 c-6.399,0-11.542-1.767-15.425-5.313c-3.889-3.541-5.829-8.168-5.829-13.882 C1933.064,2561.356,1935.005,2556.728,1938.894,2553.182z M1969.744,2622.255v188.19h-31.192v-188.19H1969.744z" fill="black" /> <path d="M2217.236,2723.034h-150.483c0.686,21.483,6.796,37.594,18.34,48.333c11.537,10.743,25.648,16.111,42.335,16.111 c15.081,0,27.705-3.825,37.877-11.484c10.166-7.654,16.395-17.878,18.682-30.679h33.25c-2.287,13.027-7.371,24.681-15.256,34.963 c-7.883,10.285-18.113,18.286-30.678,23.996c-12.57,5.715-26.736,8.57-42.506,8.57c-18.056,0-34.054-3.883-47.99-11.655 c-13.942-7.766-24.852-18.906-32.736-33.421c-7.883-14.51-11.826-31.59-11.826-51.247c0-19.651,3.943-36.791,11.826-51.418 c7.885-14.622,18.794-25.821,32.736-33.593c13.937-7.766,29.935-11.655,47.99-11.655c18.28,0,34.221,3.889,47.818,11.655 c13.594,7.772,23.996,18.168,31.195,31.194c7.198,13.025,10.798,27.422,10.798,43.191 C2218.608,2712.525,2218.146,2718.235,2217.236,2723.034z M2180.215,2672.986c-5.26-9.367-12.458-16.335-21.595-20.91 c-9.145-4.568-19.084-6.855-29.823-6.855c-17.139,0-31.537,5.313-43.191,15.939c-11.656,10.627-17.943,26.224-18.853,46.791 h120.318C2187.757,2694.015,2185.471,2682.36,2180.215,2672.986z" fill="black" /> <path d="M2343.379,2629.967c11.881-7.199,26.053-10.798,42.508-10.798v33.936h-9.599c-17.601,0-31.997,4.516-43.192,13.541 c-11.199,9.03-16.795,23.941-16.795,44.733v99.066h-31.194v-188.19h31.194v38.049 C2322.47,2647.277,2331.494,2637.165,2343.379,2629.967z" fill="black" /> <path d="M874.549,2980.124l73.699,207.045l74.728-207.045h33.937l-88.782,241.665h-39.421l-88.439-241.665H874.549z" fill="black" /> <path d="M1285.893,3134.378H1135.41c0.685,21.483,6.797,37.596,18.338,48.334c11.537,10.744,25.65,16.11,42.334,16.11 c15.083,0,27.708-3.823,37.879-11.482c10.166-7.654,16.395-17.879,18.682-30.68h33.25c-2.286,13.026-7.369,24.681-15.253,34.965 c-7.885,10.283-18.114,18.285-30.68,23.995c-12.571,5.715-26.737,8.57-42.506,8.57c-18.056,0-34.054-3.883-47.991-11.655 c-13.94-7.766-24.852-18.907-32.735-33.421c-7.884-14.51-11.826-31.591-11.826-51.247c0-19.651,3.942-36.791,11.826-51.419 c7.884-14.622,18.795-25.821,32.735-33.593c13.938-7.767,29.936-11.655,47.991-11.655c18.28,0,34.22,3.888,47.818,11.655 c13.593,7.771,23.995,18.167,31.194,31.194c7.198,13.025,10.799,27.422,10.799,43.19 C1287.266,3123.87,1286.804,3129.579,1285.893,3134.378z M1248.872,3084.332c-5.26-9.368-12.458-16.336-21.595-20.91 c-9.144-4.569-19.084-6.856-29.823-6.856c-17.14,0-31.536,5.313-43.191,15.94c-11.654,10.626-17.942,26.224-18.853,46.79h120.318 C1256.414,3105.359,1254.126,3093.705,1248.872,3084.332z" fill="black" /> <path d="M1412.036,3041.311c11.88-7.198,26.051-10.798,42.505-10.798v33.937h-9.599c-17.598,0-31.997,4.515-43.189,13.54 c-11.199,9.03-16.797,23.941-16.797,44.733v99.065h-31.193v-188.189h31.193v38.049 C1391.127,3058.623,1400.151,3048.51,1412.036,3041.311z" fill="black" /> <path d="M1659.522,3042.854c13.024,7.771,23.25,18.971,30.68,33.593c7.423,14.628,11.141,31.768,11.141,51.419 c0,19.656-3.718,36.737-11.141,51.247c-7.43,14.514-17.655,25.655-30.68,33.421c-13.026,7.772-27.884,11.655-44.562,11.655 c-18.285,0-33.764-4.628-46.447-13.883c-12.683-9.256-21.425-21.425-26.224-36.508v47.99h-31.193v-253.662h31.193v113.463 c4.799-15.083,13.541-27.251,26.224-36.508c12.684-9.255,28.162-13.882,46.447-13.882 C1631.639,3031.199,1646.496,3035.087,1659.522,3042.854z M1573.14,3067.364c-9.827,5.603-17.48,13.658-22.966,24.167 c-5.485,10.514-8.227,22.623-8.227,36.336c0,13.711,2.741,25.768,8.227,36.163c5.485,10.401,13.139,18.457,22.966,24.167 c9.823,5.715,20.792,8.57,32.907,8.57c19.422,0,34.906-6.112,46.447-18.339c11.537-12.223,17.312-29.078,17.312-50.561 c0-21.479-5.775-38.333-17.312-50.562c-11.541-12.223-27.025-18.339-46.447-18.339 C1593.932,3058.965,1582.963,3061.766,1573.14,3067.364z" fill="black" /> <path d="M1939.578,3134.378h-150.483c0.687,21.483,6.798,37.596,18.34,48.334c11.538,10.744,25.649,16.11,42.335,16.11 c15.082,0,27.707-3.823,37.877-11.482c10.166-7.654,16.396-17.879,18.682-30.68h33.25c-2.286,13.026-7.369,24.681-15.254,34.965 c-7.884,10.283-18.114,18.285-30.68,23.995c-12.569,5.715-26.736,8.57-42.506,8.57c-18.055,0-34.053-3.883-47.99-11.655 c-13.941-7.766-24.852-18.907-32.735-33.421c-7.884-14.51-11.827-31.591-11.827-51.247c0-19.651,3.943-36.791,11.827-51.419 c7.884-14.622,18.794-25.821,32.735-33.593c13.938-7.767,29.936-11.655,47.99-11.655c18.281,0,34.221,3.888,47.82,11.655 c13.593,7.771,23.995,18.167,31.194,31.194c7.197,13.025,10.796,27.422,10.796,43.19 C1940.949,3123.87,1940.489,3129.579,1939.578,3134.378z M1902.558,3084.332c-5.26-9.368-12.46-16.336-21.595-20.91 c-9.145-4.569-19.084-6.856-29.824-6.856c-17.139,0-31.535,5.313-43.189,15.94c-11.656,10.626-17.943,26.224-18.854,46.79h120.319 C1910.1,3105.359,1907.812,3093.705,1902.558,3084.332z" fill="black" /> <path d="M2110.627,3221.789l-71.984-84.668v84.668h-31.194v-253.662h31.194v147.398l70.957-81.926h38.049l-84.326,93.581 l86.383,94.609H2110.627z" fill="black" /> <path d="M2374.572,3134.378h-150.483c0.686,21.483,6.798,37.596,18.339,48.334c11.537,10.744,25.65,16.11,42.336,16.11 c15.082,0,27.705-3.823,37.877-11.482c10.166-7.654,16.396-17.879,18.682-30.68h33.25c-2.286,13.026-7.37,24.681-15.253,34.965 c-7.885,10.283-18.116,18.285-30.681,23.995c-12.57,5.715-26.736,8.57-42.506,8.57c-18.055,0-34.053-3.883-47.988-11.655 c-13.943-7.766-24.854-18.907-32.737-33.421c-7.884-14.51-11.829-31.591-11.829-51.247c0-19.651,3.945-36.791,11.829-51.419 c7.884-14.622,18.794-25.821,32.737-33.593c13.936-7.767,29.934-11.655,47.988-11.655c18.28,0,34.221,3.888,47.818,11.655 c13.594,7.771,23.996,18.167,31.195,31.194c7.199,13.025,10.798,27.422,10.798,43.19 C2375.944,3123.87,2375.482,3129.579,2374.572,3134.378z M2337.551,3084.332c-5.259-9.368-12.458-16.336-21.594-20.91 c-9.145-4.569-19.085-6.856-29.824-6.856c-17.139,0-31.535,5.313-43.19,15.94c-11.654,10.626-17.944,26.224-18.854,46.79h120.318 C2345.093,3105.359,2342.807,3093.705,2337.551,3084.332z" fill="black" /> </g> <g> <path d="M2589.445,178.102c-3.785-3.559-24.582,7.292-24.582,7.292l-200.168,94.019c-23.621,11.099-44.098,27.819-59.583,48.818 c-58.919,79.708-208.868,292.159-264.707,461.347c-76.228,231.186-174.837,474.105-99.041,1006.729 c1.901,13.479-12.937,22.914-24.408,15.579c-459.323-293.352-669.127-870.462-704.442-976.094 c-3.025-8.961-13.112-13.279-21.693-9.311l-59.633,27.382c-7.749,3.568-11.32,12.671-8.091,20.571 c307.674,755.073,788.439,1042.019,914.886,1106.665c12.23,6.269,25.9-4.988,22.439-18.288 C1799.631,955.479,2337.154,372.109,2572.823,197.76C2585.725,188.239,2591.693,180.297,2589.445,178.102z" fill="black" /> <path d="M796.673,1014.334c-12.23-6.269-25.898,4.987-22.44,18.289c66.068,255.192,80.898,483.172,62.385,684.189 c-39.175,7.674-77.985,18.786-116.192,33.812c-156.153,61.344-230.162,160.198-233.138,164.326c0,0-19.555,23.555-14.459,28.146 c5.607,4.983,30.416-17.257,30.416-17.257c27.227-23.165,85.158-67.546,176.099-103.311 c43.671-17.149,93.769-32.019,150.141-41.605c-72.409,554.269-398.126,891.334-567.652,1016.749 c-12.899,9.52-18.87,17.462-16.627,19.656c3.789,3.56,24.591-7.291,24.591-7.291l200.163-94.02 c23.623-11.097,44.1-27.819,59.585-48.819c58.92-79.707,208.869-292.157,264.709-461.344 c41.604-126.181,89.873-255.859,112.816-434.224c5.492-0.39,11.027-0.733,16.616-1.016l75.609-0.493 c148.124,5.604,325.639,49.665,530.831,163.659c50.736,107.708,80.562,191.595,92.017,225.86 c3.026,8.96,13.115,13.278,21.694,9.311l59.635-27.383c7.75-3.567,11.319-12.672,8.09-20.571 C1403.889,1365.926,923.122,1078.979,796.673,1014.334z M1014.746,1703.917l-73.812,0.287c-8.95,0.448-17.892,1.053-26.823,1.814 c11.762-135.971,8.697-299.459-20.822-506.893c-1.897-13.479,12.939-22.913,24.412-15.578 c264.579,168.976,446.36,432.097,559.699,645.033C1334.305,1761.783,1174.686,1710.417,1014.746,1703.917z" fill="black" /> </g></svg>